<?xml version="1.0" encoding="utf-8"?>
<!-- Generator: Adobe Illustrator 23.0.3, SVG Export Plug-In . SVG Version: 6.00 Build 0)  -->
<svg version="1.1" id="Layer_1" xmlns="http://www.w3.org/2000/svg" xmlns:xlink="http://www.w3.org/1999/xlink" x="0px" y="0px"
	 viewBox="0 0 500 500" style="enable-background:new 0 0 500 500;" xml:space="preserve">
<style type="text/css">
	.st0{fill:#63CDFF;}
	.st1{opacity:0.7;fill:#FFFFFF;enable-background:new    ;}
	.st2{fill:none;stroke:#263238;stroke-linecap:round;stroke-linejoin:round;stroke-miterlimit:10;}
	.st3{fill:#263238;}
	.st4{fill:none;stroke:#263238;stroke-miterlimit:10;}
	.st5{fill:#263238;stroke:#263238;stroke-linecap:round;stroke-linejoin:round;stroke-miterlimit:10;}
	.st6{fill:none;stroke:#263238;stroke-width:2;stroke-linecap:round;stroke-linejoin:round;stroke-miterlimit:10;}
	.st7{fill:none;stroke:#FFFFFF;stroke-width:3;stroke-linecap:round;stroke-linejoin:round;stroke-miterlimit:10;}
	.st8{fill:#757575;stroke:#263238;stroke-linecap:round;stroke-linejoin:round;stroke-miterlimit:10;}
	.st9{fill:#FFFFFF;stroke:#263238;stroke-linecap:round;stroke-linejoin:round;stroke-miterlimit:10;}
	.st10{fill:#919191;stroke:#263238;stroke-linecap:round;stroke-linejoin:round;stroke-miterlimit:10;}
	.st11{fill:#666666;stroke:#263238;stroke-linecap:round;stroke-linejoin:round;stroke-miterlimit:10;}
	.st12{fill:#1677FF;stroke:#263238;stroke-linecap:round;stroke-linejoin:round;stroke-miterlimit:10;}
	.st13{fill:#BABABA;stroke:#263238;stroke-linecap:round;stroke-linejoin:round;stroke-miterlimit:10;}
	.st14{fill:#FFFFFF;}
	.st15{fill:#4FBCFF;stroke:#263238;stroke-linecap:round;stroke-linejoin:round;stroke-miterlimit:10;}
	.st16{fill:#FFFFFF;stroke:#263238;stroke-width:0.5;stroke-miterlimit:10;}
</style>
<g id="Background_Simple">
	<g>
		<path class="st0" d="M453.1,406.9c-1.8,2.9-3.6,5.8-5.5,8.5c-25.6,37-67.1,61.8-107.2,72.4c-17.5,4.7-35.5,6.9-53.4,7.1
			c-117.2,1.4-157.6-100.5-194.6-127.4c-37-27-93.8-72.8-84.1-165.8C15.6,130.9,56,64.2,127.4,35.2c7.9-3.2,16.1-5.9,24.7-8.2
			c16-4.2,33.3-6.6,51.9-6.9c53.4-1.1,96.4,13.5,137.8,48.3c9.6,8.1,19.2,17.2,32,18.5c9.3,0.9,18.2-2.3,8.7-11.9
			c-11.1-11.3,2.6-32.6,31.2-16.8c47.7,26.4,66.2,81.1,74.2,136.5C497.6,262.7,489.8,346.7,453.1,406.9z"/>
		<path class="st1" d="M453.1,406.9c-1.8,2.9-3.6,5.8-5.5,8.5c-25.6,37-67.1,61.8-107.2,72.4c-17.5,4.7-35.5,6.9-53.4,7.1
			c-117.2,1.4-157.6-100.5-194.6-127.4c-37-27-93.8-72.8-84.1-165.8C15.6,130.9,56,64.2,127.4,35.2c7.9-3.2,16.1-5.9,24.7-8.2
			c16-4.2,33.3-6.6,51.9-6.9c53.4-1.1,96.4,13.5,137.8,48.3c9.6,8.1,19.2,17.2,32,18.5c9.3,0.9,18.2-2.3,8.7-11.9
			c-11.1-11.3,2.6-32.6,31.2-16.8c47.7,26.4,66.2,81.1,74.2,136.5C497.6,262.7,489.8,346.7,453.1,406.9z"/>
	</g>
</g>
<g id="Devices_2">
	<g>
		<path class="st2" d="M381.4,446.3l-37.1,7.9c-2.8,0.6-5.6-1.2-6.2-4l-16.4-77.3c-0.6-2.8,1.2-5.6,4-6.2l37.1-7.9
			c2.8-0.6,5.6,1.2,6.2,4l16.4,77.3C386,442.9,384.2,445.7,381.4,446.3z"/>
		<polyline class="st2" points="351.6,368.5 367.1,365.2 382.7,438.8 340.1,447.9 324.4,374.2 346.9,369.5 		"/>
		<path class="st2" d="M444.3,432.9l-37.1,7.9c-2.8,0.6-5.6-1.2-6.2-4l-16.4-77.3c-0.6-2.8,1.2-5.6,4-6.2l37.1-7.9
			c2.8-0.6,5.6,1.2,6.2,4l16.4,77.3C448.9,429.6,447.1,432.3,444.3,432.9z"/>
		<polyline class="st2" points="429.6,428.9 403,434.5 387.3,360.9 430,351.8 445.6,425.4 433.9,427.9 		"/>
		<path class="st3" d="M401.8,343.9l-4.1-13.7l-3.6,3.8c-6.8-4.2-15-5.6-22.9-3.9c-14.6,3.1-25,16.1-24.8,31c0,1.1,0.9,2,2,2
			c0.1,0,0.3,0,0.4,0c0.9-0.2,1.6-1,1.6-2c-0.2-13,8.9-24.4,21.6-27.1c6.7-1.4,13.4-0.3,19.2,3l-3.4,3.7L401.8,343.9z"/>
		<path class="st3" d="M366.9,457.6l4.1,13.7l3.6-3.8c6.8,4.2,15,5.6,22.9,3.9c14.6-3.1,25-16.1,24.8-31c0-1.1-0.9-2-2-2
			c-0.1,0-0.3,0-0.4,0c-0.9,0.2-1.6,1-1.6,2c0.2,13-8.9,24.4-21.6,27.1c-6.7,1.4-13.4,0.3-19.2-3l3.4-3.7L366.9,457.6z"/>
		<g>
			<g>
				
					<rect x="330.9" y="380.3" transform="matrix(0.9781 -0.208 0.208 0.9781 -72.677 78.1426)" class="st2" width="8.7" height="8.7"/>
				
					<rect x="343.7" y="377.6" transform="matrix(0.9781 -0.208 0.208 0.9781 -71.8375 80.7468)" class="st2" width="8.7" height="8.7"/>
				
					<rect x="356.5" y="374.9" transform="matrix(0.9781 -0.208 0.208 0.9781 -70.997 83.3517)" class="st2" width="8.7" height="8.7"/>
			</g>
			<g>
				
					<rect x="333.8" y="393.9" transform="matrix(0.9781 -0.208 0.208 0.9781 -75.4428 79.0431)" class="st2" width="8.7" height="8.7"/>
				
					<rect x="346.6" y="391.2" transform="matrix(0.9781 -0.208 0.208 0.9781 -74.6023 81.648)" class="st2" width="8.7" height="8.7"/>
				
					<rect x="359.4" y="388.4" transform="matrix(0.9781 -0.208 0.208 0.9781 -73.7409 84.247)" class="st2" width="8.7" height="8.7"/>
			</g>
			<g>
				
					<rect x="336.7" y="407.5" transform="matrix(0.9781 -0.208 0.208 0.9781 -78.2076 79.9443)" class="st2" width="8.7" height="8.7"/>
				
					<rect x="349.5" y="404.7" transform="matrix(0.9781 -0.208 0.208 0.9781 -77.3462 82.5433)" class="st2" width="8.7" height="8.7"/>
				
					<rect x="362.3" y="402" transform="matrix(0.9781 -0.208 0.208 0.9781 -76.5059 85.148)" class="st2" width="8.7" height="8.7"/>
			</g>
		</g>
		<g>
			<g>
				
					<rect x="394" y="366.9" transform="matrix(0.9781 -0.208 0.208 0.9781 -68.5114 90.976)" class="st2" width="8.7" height="8.7"/>
				
					<rect x="406.9" y="364.2" transform="matrix(0.9781 -0.208 0.208 0.9781 -67.6644 93.6008)" class="st2" width="8.7" height="8.7"/>
				
					<rect x="419.7" y="361.4" transform="matrix(0.9781 -0.208 0.208 0.9781 -66.8053 96.1987)" class="st2" width="8.7" height="8.7"/>
			</g>
			<g>
				
					<rect x="396.9" y="380.5" transform="matrix(0.9781 -0.208 0.208 0.9781 -71.2762 91.8772)" class="st2" width="8.7" height="8.7"/>
				
					<rect x="409.7" y="377.7" transform="matrix(0.9781 -0.208 0.208 0.9781 -70.417 94.4751)" class="st2" width="8.7" height="8.7"/>
				
					<rect x="422.6" y="375" transform="matrix(0.9781 -0.208 0.208 0.9781 -69.5701 97.0998)" class="st2" width="8.7" height="8.7"/>
			</g>
			<g>
				
					<rect x="399.8" y="394" transform="matrix(0.9781 -0.208 0.208 0.9781 -74.0223 92.7713)" class="st2" width="8.7" height="8.7"/>
				
					<rect x="412.6" y="391.3" transform="matrix(0.9781 -0.208 0.208 0.9781 -73.1818 95.3762)" class="st2" width="8.7" height="8.7"/>
				
					<rect x="425.5" y="388.6" transform="matrix(0.9781 -0.208 0.208 0.9781 -72.3336 98.0015)" class="st2" width="8.7" height="8.7"/>
			</g>
		</g>
	</g>
</g>
<g id="Coins">
	<g>
		<path class="st3" d="M446.3,215.3l6-8.2l-3.7-0.4c-0.5-5.6-3.2-10.9-7.5-14.6c-7.9-6.9-19.8-7.3-28.1-0.9c-0.6,0.5-0.7,1.4-0.3,2
			c0.1,0.1,0.1,0.1,0.2,0.2c0.5,0.4,1.2,0.5,1.8,0.1c7.3-5.6,17.6-5.3,24.5,0.8c3.6,3.2,5.9,7.4,6.5,12.2l-3.5-0.4L446.3,215.3z"/>
		<path class="st3" d="M379.5,226.8l-6,8.2l3.7,0.4c0.5,5.6,3.2,10.9,7.5,14.6c7.9,6.9,19.8,7.3,28.1,0.9c0.6-0.5,0.7-1.4,0.3-2
			c-0.1-0.1-0.1-0.1-0.2-0.2c-0.5-0.4-1.2-0.5-1.8-0.1c-7.3,5.6-17.6,5.3-24.5-0.8c-3.6-3.2-5.9-7.4-6.5-12.2l3.5,0.4L379.5,226.8z"
			/>
		<g>
			<path class="st2" d="M373.3,192.3c4.4-6,11.5-10,19.5-10c13.3,0,24.1,10.8,24.1,24.1s-10.8,24.1-24.1,24.1
				c-13.3,0-24.1-10.8-24.1-24.1c0-2.6,0.4-5.2,1.2-7.6"/>
			<ellipse class="st2" cx="392.9" cy="206.5" rx="19.9" ry="19.9"/>
			<g>
				<path class="st4" d="M393,223.5v-3.4c-2.3-0.1-4.1-0.9-5.3-2.3c-1.2-1.4-1.8-3.6-1.9-6.5l5.2-0.8c0,1.2,0.1,2.1,0.3,2.9
					c0.2,0.7,0.5,1.3,0.8,1.6c0.4,0.3,0.8,0.5,1.3,0.5c0.6,0,1.1-0.2,1.2-0.7c0.2-0.4,0.3-0.9,0.3-1.4c0-1.1-0.3-2.1-0.8-2.9
					c-0.5-0.8-1.3-1.6-2.2-2.4l-2.4-2.1c-0.7-0.6-1.3-1.2-1.9-1.9s-1-1.4-1.4-2.3c-0.3-0.9-0.5-1.9-0.5-3.1c0-2.2,0.6-3.9,1.9-5.1
					c1.2-1.2,2.9-1.9,5-2.1v-3.3h1.7v3.2c1.3,0.1,2.4,0.4,3.2,0.9c0.8,0.5,1.4,1.2,1.8,2s0.7,1.6,0.8,2.5c0.1,0.9,0.2,1.7,0.3,2.4
					l-5.3,0.7c0-0.8-0.1-1.5-0.2-2.2c-0.1-0.6-0.2-1.1-0.5-1.4c-0.2-0.3-0.6-0.5-1.1-0.5c-0.6,0-1,0.2-1.3,0.7s-0.4,1-0.4,1.4
					c0,1.1,0.3,2,0.8,2.7c0.6,0.7,1.2,1.3,1.8,1.9l2.3,2c0.8,0.7,1.5,1.5,2.1,2.3c0.7,0.8,1.2,1.7,1.6,2.7s0.6,2.1,0.6,3.4
					c0,1.2-0.3,2.3-0.8,3.3s-1.2,1.8-2.2,2.4c-0.9,0.6-2.1,1-3.4,1.1v3.4H393V223.5z"/>
			</g>
		</g>
		<g>
			<ellipse class="st2" cx="432.6" cy="235.9" rx="24.1" ry="24.1"/>
			<path class="st2" d="M450.9,243.6c-3,7.2-10.1,12.2-18.3,12.2c-11,0-19.9-8.9-19.9-19.9s8.9-19.9,19.9-19.9s19.9,8.9,19.9,19.9"
				/>
			<g>
				<path class="st4" d="M432.7,252.9v-3.4c-2.3-0.1-4.1-0.9-5.3-2.3c-1.2-1.4-1.8-3.6-1.9-6.5l5.2-0.8c0,1.2,0.1,2.1,0.3,2.9
					c0.2,0.7,0.5,1.3,0.8,1.6c0.4,0.3,0.8,0.5,1.3,0.5c0.6,0,1.1-0.2,1.2-0.7c0.2-0.4,0.3-0.9,0.3-1.4c0-1.1-0.3-2.1-0.8-2.9
					c-0.5-0.8-1.3-1.6-2.2-2.4l-2.4-2.1c-0.7-0.6-1.3-1.2-1.9-1.9s-1-1.4-1.4-2.3c-0.3-0.9-0.5-1.9-0.5-3.1c0-2.2,0.6-3.9,1.9-5.1
					c1.2-1.2,2.9-1.9,5-2.1v-3.3h1.7v3.2c1.3,0.1,2.4,0.4,3.2,0.9c0.8,0.5,1.4,1.2,1.8,2s0.7,1.6,0.8,2.5c0.1,0.9,0.2,1.7,0.3,2.4
					l-5.3,0.7c0-0.8-0.1-1.5-0.2-2.2c-0.1-0.6-0.2-1.1-0.5-1.4c-0.2-0.3-0.6-0.5-1.1-0.5c-0.6,0-1,0.2-1.3,0.7s-0.4,1-0.4,1.4
					c0,1.1,0.3,2,0.8,2.7c0.6,0.7,1.2,1.3,1.8,1.9l2.3,2c0.8,0.7,1.5,1.5,2.1,2.3c0.7,0.8,1.2,1.7,1.6,2.7s0.6,2.1,0.6,3.4
					c0,1.2-0.3,2.3-0.8,3.3s-1.2,1.8-2.2,2.4c-0.9,0.6-2.1,1-3.4,1.1v3.4h-1.4V252.9z"/>
			</g>
		</g>
	</g>
</g>
<g id="Credit_card">
	<g>
		<g>
			<path class="st2" d="M115.6,82.6L96.7,69.8c-2-1.4-2.5-4.1-1.2-6.1L114,36.6c1.4-2,4.1-2.5,6.1-1.2l47.1,32
				c2,1.4,2.5,4.1,1.2,6.1l-18.5,27.1c-1.4,2-4.1,2.5-6.1,1.2L120.6,86"/>
			
				<rect x="130.2" y="29.6" transform="matrix(0.5625 -0.8268 0.8268 0.5625 7.8956 139.8628)" class="st5" width="11.8" height="65.7"/>
		</g>
		<g id="crgtaD.tif">
			<g>
				<path class="st3" d="M182.7,96.3c-0.1,0-0.2-0.1-0.3-0.1c-1.5-0.7-1.7-2.8-0.3-3.8c1.3-0.9,2.6-1.9,3.7-3.1
					c2.1-2.2,3.6-4.7,4.7-7.5c0.6-1.7,1.1-3.4,1.3-5.2c0.7-5.5-0.5-10.5-3.5-15.2c-0.3-0.4-0.4-0.8-0.5-1.3c0-1,0.6-1.8,1.5-2.1
					s1.9,0,2.5,0.9c0.8,1.2,1.5,2.4,2.1,3.7c1.6,3.4,2.4,7,2.5,10.8c0,1.5-0.1,3-0.3,4.6c0,0.1,0,0.1,0,0.2
					c-0.1,0.6-0.2,1.2-0.4,1.8c0,0.1,0,0.1-0.1,0.2c-0.2,0.8-0.4,1.5-0.7,2.3c-0.7,2-1.6,3.9-2.7,5.6c-2,3.2-4.6,5.9-7.8,8
					c-0.4,0.2-0.8,0.4-1.2,0.4c-0.1,0-0.1,0-0.2,0C183.1,96.4,182.9,96.3,182.7,96.3z"/>
				<path class="st3" d="M188.2,77.5c-1.1,5-3.7,9.1-8,12c-0.7,0.5-1.6,0.5-2.3,0s-1-1.3-0.8-2.2c0.1-0.5,0.4-0.9,0.9-1.2
					c1.1-0.7,2-1.6,2.9-2.5c1.4-1.6,2.4-3.4,3-5.4c1.3-4.5,0.7-8.7-1.8-12.6c-0.7-1.1-0.4-2.4,0.6-3s2.2-0.3,2.8,0.6
					c1.4,2.2,2.4,4.5,2.9,7.1c0.4,2,0.4,4,0.1,6C188.3,76.7,188.3,77.1,188.2,77.5z"/>
				<path class="st3" d="M180.9,76c-0.7,3.1-2.3,5.5-4.9,7.3c-0.7,0.5-1.5,0.5-2.2,0.1s-1.1-1.1-1-1.9c0-0.7,0.4-1.2,0.9-1.6
					c0.9-0.6,1.6-1.3,2.2-2.2c1.5-2.7,1.5-5.3-0.1-7.9c-0.3-0.5-0.5-1-0.4-1.6c0.2-0.8,0.8-1.4,1.6-1.6s1.6,0.2,2.1,0.9
					c1.2,1.8,1.8,3.7,1.9,5.8C181.1,74.1,181.1,75.1,180.9,76z"/>
			</g>
		</g>
	</g>
</g>
<g id="Cart">
	<g>
		<g>
			<polyline class="st6" points="22.7,203.7 32.8,203.7 45.7,245.7 81.7,245.7 			"/>
			<polyline class="st6" points="36,213.2 89.7,213.2 83.4,236.7 43.3,236.7 			"/>
			<line class="st6" x1="54.2" y1="213.5" x2="56.5" y2="236"/>
			<line class="st6" x1="71.2" y1="213.5" x2="68.9" y2="236"/>
			<circle class="st6" cx="81" cy="251.2" r="5.5"/>
			<circle class="st6" cx="47.8" cy="251.2" r="5.5"/>
			<line class="st6" x1="39.7" y1="225.8" x2="86.5" y2="225.8"/>
		</g>
		<g>
			<circle class="st3" cx="97" cy="210.4" r="20"/>
			<polyline class="st7" points="91.3,209 95,215.6 108.2,202.4 			"/>
		</g>
	</g>
</g>
<g id="Device_1">
	<g>
		<path class="st8" d="M187.9,123.5c0,0-7,1.6-7.3,9.2c-0.3,7.6-1.9,64.2,0.6,126.4c2.5,62.3,8.2,132.4,9.2,139.1
			c0.9,6.6,6.3,7,8.2,7.9s31,3.2,48,3.2s44.9-3.2,48.4-4.1s5.1-7.6,6-12.3c0.9-4.7,0.6-11.4,0.6-11.4l4.7-103c0,0,1.9-70.2,1.9-93.9
			s0.3-49.3-0.9-54.4c-1.3-5.1-7.3-8.5-7.3-8.5s-3.5-2.2-8.5-3.2c-5.1-0.9-11.1,0.3-11.1,0.3l-70.2,0.3c0,0-1.3-1.6-5.4-0.9
			c-4.1,0.6-12,1.3-14.5,2.5C187.9,121.9,187.9,123.5,187.9,123.5z"/>
		<path class="st5" d="M191.4,166.8l1.9,79.3c0,0,0,35.1,1.3,39.2s7.3,5.7,10.1,6.3c2.8,0.6,19.9,2.8,44.6,2.5s39.8-1.6,44.6-5.7
			c4.7-4.1,4.4-8.5,4.4-12.6s0.6-110.3,0.6-110.3L191.4,166.8z"/>
		<rect x="199.6" y="194.9" class="st9" width="91.3" height="70.8"/>
		<path class="st10" d="M198.7,125.4l-7.9,26.2c-0.4,1.1-0.4,2.3,0,3.4l0,0c0.8,2.2,2.9,3.4,5.2,3.4c13-0.3,29.8-0.5,50.8-0.5
			c19.7,0,36.6-0.5,43.1,0.1c3.1,0.3,6.1-1.5,7.2-4.4l-0.3,1c0.6-1.5,1-4.1,0.5-5.6c-2-6.6-5.8-23-7.3-24.3
			c-1.9-1.6-7.6-2.8-8.5-2.8s-67.6,0.5-72,1.1C205,123.5,201.5,121.9,198.7,125.4z"/>
		<g>
			<path class="st9" d="M271.3,275.1c0,0,2.6,7.7,3.5,9.6s3.9,2.8,5.3,2.8c1.3,0,10.3-1.3,11.6-2.6c1.3-1.3,1.5-5.9,1.1-8.1
				s-0.7-2.2-2.6-2.2C288.2,274.7,271.3,275.1,271.3,275.1z"/>
			<path class="st9" d="M196.2,274c0,0-0.7,9.6,2,11.4c2.6,1.8,19.9,3.5,19.7,2.4s-3.7-12.7-5.5-13.1
				C210.6,274.2,196.2,274,196.2,274z"/>
			<path class="st9" d="M219.6,276c0,0,3.3,9.9,5.5,11.4s3.9,1.8,5.5,1.8c1.5,0,25.6,0.4,29.8,0.4c4.2,0,8.3-1.5,8.3-2.2
				s-4.6-10.5-5.7-11.4s-3.1-0.9-3.9-0.9c-0.9,0-36.6-0.2-37.7-0.4C220.3,274.5,219.6,274.7,219.6,276z"/>
			<line class="st2" x1="237.8" y1="288.3" x2="250.7" y2="275.5"/>
			<polygon class="st5" points="259.1,278.6 255.3,282.1 261,282.1 			"/>
			<polygon class="st5" points="228.2,282.8 231.2,286.5 235,283.2 			"/>
			<g>
				<rect x="278.6" y="279.3" class="st3" width="9.9" height="1.7"/>
			</g>
			<g>
				<rect x="199.9" y="279.3" class="st3" width="9.9" height="1.7"/>
			</g>
		</g>
		<g>
			<path class="st2" d="M203.2,298.8c0,0-0.6-0.1-1.5-0.1c-1.4,0-3.5,0.2-4.6,1.4c-1.8,2-0.7,10.1,0.4,11.6
				c1.9,2.5,21.7,4.2,23.4,3.7c1.8-0.4,2.8-0.9,3.1-3.3c0.2-2.4,0.9-8.5-1.1-10.3C220.9,300.1,203.2,298.8,203.2,298.8z"/>
			<path class="st5" d="M204.2,301.1c0,0-0.5-0.1-1.3-0.1c-1.2,0-3,0.2-3.9,1.1c-1.5,1.5-0.6,7.6,0.4,8.8c1.6,1.9,18.4,3.1,19.9,2.8
				c1.5-0.3,2.4-0.7,2.6-2.5c0.2-1.8,0.7-6.5-0.9-7.8C219.3,302.1,204.2,301.1,204.2,301.1z"/>
		</g>
		<g>
			<path class="st2" d="M203.2,319.3c0,0-0.6-0.1-1.5-0.1c-1.4,0-3.5,0.2-4.6,1.4c-1.8,2-0.7,10.1,0.4,11.6
				c1.9,2.5,21.7,4.2,23.4,3.7c1.8-0.4,2.8-0.9,3.1-3.3c0.2-2.4,0.9-8.5-1.1-10.3C220.9,320.6,203.2,319.3,203.2,319.3z"/>
			<path class="st5" d="M204.2,321.6c0,0-0.5-0.1-1.3-0.1c-1.2,0-3,0.2-3.9,1.1c-1.5,1.5-0.6,7.6,0.4,8.8c1.6,1.9,18.4,3.1,19.9,2.8
				s2.4-0.7,2.6-2.5c0.2-1.8,0.7-6.5-0.9-7.8C219.3,322.6,204.2,321.6,204.2,321.6z"/>
		</g>
		<g>
			<path class="st2" d="M204.5,339.3c0,0-0.6-0.1-1.5-0.1c-1.4,0-3.5,0.2-4.6,1.4c-1.8,2-0.7,10.1,0.4,11.6
				c1.9,2.5,21.7,4.2,23.4,3.7c1.8-0.4,2.8-0.9,3.1-3.3c0.2-2.4,0.9-8.5-1.1-10.3C222.2,340.6,204.5,339.3,204.5,339.3z"/>
			<path class="st5" d="M205.5,341.6c0,0-0.5-0.1-1.3-0.1c-1.2,0-3,0.2-3.9,1.1c-1.5,1.5-0.6,7.6,0.4,8.8c1.6,1.9,18.4,3.1,19.9,2.8
				c1.5-0.3,2.4-0.7,2.6-2.5c0.2-1.8,0.7-6.5-0.9-7.8C220.6,342.6,205.5,341.6,205.5,341.6z"/>
		</g>
		<g>
			<path class="st2" d="M204.8,358.9c0,0-0.6-0.1-1.5-0.1c-1.4,0-3.5,0.2-4.6,1.4c-1.8,2-0.7,10.1,0.4,11.6
				c1.9,2.5,21.7,4.2,23.4,3.7c1.8-0.4,2.8-0.9,3.1-3.3c0.2-2.4,0.9-8.5-1.1-10.3C222.5,360.2,204.8,358.9,204.8,358.9z"/>
			<path class="st5" d="M205.8,361.2c0,0-0.5-0.1-1.3-0.1c-1.2,0-3,0.2-3.9,1.1c-1.5,1.5-0.6,7.6,0.4,8.8c1.6,1.9,18.4,3.1,19.9,2.8
				c1.5-0.3,2.4-0.7,2.6-2.5c0.2-1.8,0.7-6.5-0.9-7.8C220.9,362.2,205.8,361.2,205.8,361.2z"/>
		</g>
		<g>
			<path class="st2" d="M285.3,298.8c0,0,0.6-0.1,1.5-0.1c1.4,0,3.5,0.2,4.6,1.4c1.8,2,0.7,10.1-0.4,11.6
				c-1.9,2.5-21.7,4.2-23.4,3.7c-1.8-0.4-2.8-0.9-3.1-3.3c-0.2-2.4-0.9-8.5,1.1-10.3C267.6,300.1,285.3,298.8,285.3,298.8z"/>
			<path class="st5" d="M284.2,301.1c0,0,0.5-0.1,1.3-0.1c1.2,0,3,0.2,3.9,1.1c1.5,1.5,0.6,7.6-0.4,8.8c-1.6,1.9-18.4,3.1-19.9,2.8
				c-1.5-0.3-2.4-0.7-2.6-2.5s-0.7-6.5,0.9-7.8C269.2,302.1,284.2,301.1,284.2,301.1z"/>
		</g>
		<g>
			<path class="st2" d="M285.3,319.3c0,0,0.6-0.1,1.5-0.1c1.4,0,3.5,0.2,4.6,1.4c1.8,2,0.7,10.1-0.4,11.6
				c-1.9,2.5-21.7,4.2-23.4,3.7c-1.8-0.4-2.8-0.9-3.1-3.3c-0.2-2.4-0.9-8.5,1.1-10.3C267.6,320.6,285.3,319.3,285.3,319.3z"/>
			<path class="st5" d="M284.2,321.6c0,0,0.5-0.1,1.3-0.1c1.2,0,3,0.2,3.9,1.1c1.5,1.5,0.6,7.6-0.4,8.8c-1.6,1.9-18.4,3.1-19.9,2.8
				s-2.4-0.7-2.6-2.5s-0.7-6.5,0.9-7.8C269.2,322.6,284.2,321.6,284.2,321.6z"/>
		</g>
		<g>
			<path class="st2" d="M284,339.3c0,0,0.6-0.1,1.5-0.1c1.4,0,3.5,0.2,4.6,1.4c1.8,2,0.7,10.1-0.4,11.6c-1.9,2.5-21.7,4.2-23.4,3.7
				c-1.8-0.4-2.8-0.9-3.1-3.3c-0.2-2.4-0.9-8.5,1.1-10.3C266.3,340.6,284,339.3,284,339.3z"/>
			<path class="st5" d="M283,341.6c0,0,0.5-0.1,1.3-0.1c1.2,0,3,0.2,3.9,1.1c1.5,1.5,0.6,7.6-0.4,8.8c-1.6,1.9-18.4,3.1-19.9,2.8
				c-1.5-0.3-2.4-0.7-2.6-2.5s-0.7-6.5,0.9-7.8C267.9,342.6,283,341.6,283,341.6z"/>
		</g>
		<g>
			<path class="st2" d="M283.7,358.9c0,0,0.6-0.1,1.5-0.1c1.4,0,3.5,0.2,4.6,1.4c1.8,2,0.7,10.1-0.4,11.6
				c-1.9,2.5-21.7,4.2-23.4,3.7c-1.8-0.4-2.8-0.9-3.1-3.3c-0.2-2.4-0.9-8.5,1.1-10.3C266,360.2,283.7,358.9,283.7,358.9z"/>
			<path class="st5" d="M282.7,361.2c0,0,0.5-0.1,1.3-0.1c1.2,0,3,0.2,3.9,1.1c1.5,1.5,0.6,7.6-0.4,8.8c-1.6,1.9-18.4,3.1-19.9,2.8
				c-1.5-0.3-2.4-0.7-2.6-2.5s-0.7-6.5,0.9-7.8C267.6,362.2,282.7,361.2,282.7,361.2z"/>
		</g>
		<path class="st2" d="M237.4,301.5c0,0-4.1-0.3-5.5,0.3c-1.3,0.5-1.9,1.5-1.7,2.4c0.1,0.9,0.1,6.7,0.3,8.8c0.1,2.1,1.4,3.1,2.9,3.2
			c1.2,0.1,21,0.4,23.3-0.4s2-4,2-5.1s0.3-6.1-0.4-7.5c-0.7-1.3-2.8-1.9-3.9-1.7C253.4,301.7,239.7,301.3,237.4,301.5z"/>
		<path class="st2" d="M254.7,321.1c0,0-18.9-0.5-20.8,0.1c-1.9,0.5-3.9,1.5-3.7,3.5s-0.4,7.5,0.5,9.1s1.3,2.1,2.5,2.5
			s21.3,0.5,22.6-0.1c1.3-0.7,2.3-1.5,2.5-3.2c0.3-1.7,0.6-8-0.2-9.7C257.4,321.5,254.7,321.1,254.7,321.1z"/>
		<path class="st5" d="M255.4,324.3c0,0-17.2-0.3-19.7-0.3s-3.3,0-3.5,2c-0.1,2-0.4,8.2,0.7,8.6c1.1,0.4,10,0.5,15.1,0.5
			s7.1-0.1,7.9-0.8c0.8-0.7,0.9-4.7,0.9-6.8C256.8,325.3,256.6,323.9,255.4,324.3z"/>
		<path class="st5" d="M255.4,304c0,0-17.2-0.3-19.7-0.3s-3.3,0-3.5,2s-0.4,8.2,0.7,8.6c1.1,0.4,10,0.5,15.1,0.5s7.1-0.1,7.9-0.8
			c0.8-0.7,0.9-4.7,0.9-6.8S256.6,303.6,255.4,304z"/>
		<path class="st2" d="M254.9,341.2c0,0-19.1-0.6-20.9-0.1c-1.9,0.5-3.9,1.5-3.7,3.5c0.1,2-0.4,7.5,0.5,9.1s1.3,2.1,2.5,2.5
			s21.3,0.5,22.6-0.1c1.3-0.7,2.3-1.5,2.5-3.2c0.3-1.7,0.8-7.8,0-9.6C257.6,341.6,254.9,341.2,254.9,341.2z"/>
		<path class="st5" d="M255.4,344.2c0,0-17.2-0.3-19.7-0.3s-3.3,0-3.5,2c-0.1,2-0.4,8.2,0.7,8.6c1.1,0.4,10,0.5,15.1,0.5
			s7.1-0.1,7.9-0.8c0.8-0.7,0.9-4.7,0.9-6.8S256.6,343.8,255.4,344.2z"/>
		<path class="st2" d="M254.3,361c0,0-18.5-0.5-20.3,0c-1.9,0.5-3.9,1.5-3.7,3.5c0.1,2-0.4,7.5,0.5,9.1s1.3,2.1,2.5,2.5
			s21.3,0.5,22.6-0.1c1.3-0.7,2.3-1.5,2.5-3.2c0.3-1.7,0.1-7.9-0.7-9.6C257,361.5,254.3,361,254.3,361z"/>
		<path class="st5" d="M255.4,364.1c0,0-17.2-0.3-19.7-0.3s-3.3,0-3.5,2c-0.1,2-0.4,8.2,0.7,8.6s10,0.5,15.1,0.5s7.1-0.1,7.9-0.8
			c0.8-0.7,0.9-4.7,0.9-6.8C256.8,365.2,256.6,363.7,255.4,364.1z"/>
		<path class="st11" d="M223,379.9c0,0-16-1.7-18.4-1.8c-2.4-0.2-4.4,1.5-4.2,3.3s0.2,8.1,1.3,9.8c1.1,1.7,5.2,2.2,11.1,2.6
			c5.9,0.4,9.2,0.9,10.7,0s2-1.7,2.2-3.9c0.2-2.2,0.2-5.9-0.2-7.4C225.1,381,223,379.9,223,379.9z"/>
		<path class="st12" d="M265.8,379.9c0,0,16-1.7,18.4-1.8c2.4-0.2,4.4,1.5,4.2,3.3s-0.2,8.1-1.3,9.8c-1.1,1.7-5.2,2.2-11.1,2.6
			s-9.2,0.9-10.7,0s-2-1.7-2.2-3.9c-0.2-2.2-0.2-5.9,0.2-7.4C263.8,381,265.8,379.9,265.8,379.9z"/>
		<path class="st13" d="M231.8,382.2c0,0-0.8,8.3,0.1,9.8c0.8,1.5,1.3,2.2,2.9,2.4c1.7,0.1,16.5,0.6,18.9-0.1
			c2.4-0.7,3.4-1.8,3.5-2.8s0-7.8-0.2-9s-1.3-2.4-3.1-2.5s-15.2-0.3-17.3-0.3C234.6,379.7,232.2,380.8,231.8,382.2z"/>
		<path class="st2" d="M195.9,403.9l3.1-3.5c0,0,22.9,2.2,47.4,1.6s42.7-2.3,42.7-2.3s4.1,3.4,5.9,4.1"/>
		<g>
			<path class="st2" d="M265.5,229.3l-9.6-5c-0.8-0.4-1.9-0.1-2.3,0.7l0,0c-0.4,0.7-0.2,1.6,0.4,2.1l8.6,7c0,0,2.2,4.8,4,5.1
				s3.2,0.5,3.2,0.5"/>
			<path class="st2" d="M260.4,227l0.7-3.5c0.2-0.9-0.4-1.7-1.2-1.9l-5.8-1.2c-0.9-0.2-1.7,0.4-1.9,1.2l-1,5
				c-0.2,0.9,0.4,1.7,1.2,1.9l4.9,1c0,0-1.7,1.2-0.9,2c0.8,0.7,2.3,2.3,3.5,2.9c1.2,0.6,2.8-0.4,2.8-0.4"/>
			<path class="st2" d="M261.1,223.6c0,0,4.1,0,5.1,0.9c0.9,0.8,8.8,12.6,8.8,12.6"/>
			<path class="st2" d="M258.2,233.4c0,0-1.7,1.3-0.8,2s1.4,1,3,1.5c1.7,0.4,1.9,0.6,2.4,0.4c0.5-0.2,1.2-0.5,1.2-0.5"/>
			<path class="st2" d="M261.2,237.1c-4.2,4.9-11.7,8.1-20.3,8.1c-13.1,0-23.8-7.6-23.8-17s10.6-17,23.8-17c11,0,20.3,5.4,23,12.6"
				/>
			<g>
				<g>
					<path class="st3" d="M244.5,240.2c-0.2,0-0.3,0-0.5-0.1c-0.4-0.3-0.5-0.8-0.3-1.2c2-3,3-6.6,3-10.2c0-3.5-1-6.9-2.8-9.8
						c-0.3-0.4-0.1-0.9,0.3-1.2c0.4-0.3,0.9-0.1,1.2,0.3c2,3.2,3,6.9,3,10.7c0,4-1.1,7.8-3.3,11.1
						C245,240.1,244.7,240.2,244.5,240.2z"/>
				</g>
				<g>
					<path class="st3" d="M240,238c-0.2,0-0.3-0.1-0.5-0.2c-0.4-0.3-0.5-0.8-0.2-1.2c1.6-2.3,2.5-5,2.5-7.9c0-2.7-0.8-5.2-2.2-7.4
						c-0.3-0.4-0.1-0.9,0.3-1.2c0.4-0.3,0.9-0.1,1.2,0.3c1.6,2.5,2.5,5.4,2.5,8.4c0,3.2-1,6.3-2.8,8.9
						C240.6,237.8,240.3,238,240,238z"/>
				</g>
				<g>
					<path class="st3" d="M235.5,235.6c-0.2,0-0.4-0.1-0.5-0.2c-0.4-0.3-0.4-0.8-0.1-1.2c1.2-1.6,1.9-3.4,1.9-5.4s-0.6-3.8-1.9-5.4
						c-0.3-0.4-0.2-0.9,0.1-1.2c0.4-0.3,0.9-0.2,1.2,0.1c1.5,1.9,2.2,4.1,2.2,6.5s-0.8,4.7-2.3,6.5
						C236,235.4,235.8,235.6,235.5,235.6z"/>
				</g>
				<g>
					<path class="st3" d="M230.9,233.9c-0.3,0-0.6-0.1-0.7-0.4c-0.3-0.4-0.2-0.9,0.2-1.2c1.2-0.8,1.9-2.2,1.9-3.6
						c0-1.1-0.4-2.2-1.2-3c-0.3-0.3-0.3-0.9,0-1.2s0.9-0.3,1.2,0c1.1,1.1,1.7,2.7,1.7,4.2c0,2-1,3.9-2.7,5.1
						C231.3,233.9,231.1,233.9,230.9,233.9z"/>
				</g>
			</g>
		</g>
		<g>
			<g>
				<path class="st14" d="M207.6,311.5v-6.8c-0.1,0-0.2,0.1-0.3,0.1s-0.2,0.1-0.3,0.1s-0.2,0.1-0.3,0.1s-0.2,0.1-0.3,0.1v-1.3
					c0.1,0,0.2-0.1,0.3-0.2s0.3-0.2,0.5-0.2c0.2-0.1,0.3-0.2,0.4-0.3c0.1-0.1,0.2-0.2,0.3-0.2h1.4v8.5L207.6,311.5L207.6,311.5z"/>
			</g>
			<g>
				<path class="st14" d="M240.6,313.6v-1.2l2-3.1c0.2-0.2,0.3-0.5,0.4-0.7c0.1-0.2,0.2-0.4,0.3-0.7c0.1-0.2,0.1-0.5,0.1-0.7
					s0-0.4-0.1-0.5s-0.2-0.2-0.4-0.2s-0.3,0.1-0.4,0.2c-0.1,0.1-0.2,0.2-0.2,0.4c0,0.2-0.1,0.4-0.1,0.6v0.4h-1.7v-0.4
					c0-0.5,0.1-1,0.2-1.3c0.2-0.4,0.4-0.7,0.8-0.9c0.3-0.2,0.8-0.3,1.4-0.3c0.8,0,1.3,0.2,1.7,0.6s0.6,0.9,0.6,1.6
					c0,0.3-0.1,0.7-0.2,1c-0.1,0.3-0.3,0.6-0.4,0.9c-0.2,0.3-0.4,0.6-0.6,0.9l-1.5,2.3h2.5v1.4h-4.4V313.6z"/>
			</g>
			<g>
				<path class="st14" d="M277.8,312c-0.6,0-1.1-0.1-1.4-0.3c-0.3-0.2-0.6-0.5-0.7-0.9s-0.2-0.9-0.2-1.4V309h1.7c0,0,0,0,0,0.1
					s0,0.1,0,0.2c0,0.3,0,0.5,0.1,0.7c0,0.2,0.1,0.3,0.2,0.4s0.2,0.1,0.4,0.1c0.2,0,0.3,0,0.4-0.1s0.1-0.2,0.2-0.4
					c0-0.2,0-0.4,0-0.6c0-0.4-0.1-0.7-0.2-1c-0.1-0.2-0.4-0.3-0.7-0.3c0,0,0,0-0.1,0s-0.1,0-0.2,0v-1.2h0.1h0.1
					c0.4,0,0.6-0.1,0.7-0.3c0.1-0.2,0.2-0.5,0.2-0.9c0-0.3,0-0.6-0.1-0.8c-0.1-0.2-0.2-0.3-0.5-0.3c-0.2,0-0.4,0.1-0.5,0.3
					c-0.1,0.2-0.1,0.4-0.1,0.8c0,0.1,0,0.1,0,0.2s0,0.1,0,0.2h-1.7v-0.5c0-0.5,0.1-0.9,0.3-1.3c0.2-0.4,0.4-0.6,0.8-0.8
					c0.3-0.2,0.8-0.3,1.2-0.3c0.5,0,0.9,0.1,1.3,0.3c0.3,0.2,0.6,0.4,0.8,0.8c0.2,0.3,0.3,0.8,0.3,1.3s-0.1,0.9-0.3,1.2
					c-0.2,0.3-0.4,0.5-0.7,0.6c0.2,0.1,0.4,0.2,0.5,0.3c0.2,0.2,0.3,0.4,0.4,0.6c0.1,0.3,0.1,0.6,0.1,1c0,0.5-0.1,1-0.2,1.4
					s-0.4,0.7-0.7,0.9C278.8,311.9,278.3,312,277.8,312z"/>
			</g>
			<g>
				<path class="st14" d="M209,332v-1.9h-2.6v-1.3l2.2-5.3h2v5.3h0.8v1.3h-0.8v1.9H209z M207.8,328.8h1.3v-3.5L207.8,328.8z"/>
			</g>
			<g>
				<path class="st14" d="M242.8,334.3c-0.6,0-1.1-0.1-1.4-0.3c-0.3-0.2-0.5-0.5-0.6-0.9s-0.2-0.9-0.2-1.4h1.7c0,0.3,0,0.6,0.1,0.8
					c0,0.2,0.1,0.3,0.2,0.4c0.1,0.1,0.2,0.1,0.4,0.1s0.3-0.1,0.4-0.2c0.1-0.1,0.1-0.3,0.1-0.6c0-0.3,0-0.6,0-0.9s0-0.5,0-0.7
					s-0.1-0.4-0.2-0.5c-0.1-0.1-0.2-0.2-0.4-0.2s-0.3,0.1-0.4,0.2c-0.1,0.1-0.2,0.3-0.2,0.6h-1.5l0.2-4.9h4v1.5h-2.6l-0.1,1.7
					c0.1-0.1,0.2-0.2,0.4-0.3c0.2-0.1,0.4-0.1,0.6-0.1c0.4,0,0.8,0,1.1,0.2s0.5,0.5,0.7,0.9c0.1,0.4,0.2,0.9,0.2,1.5
					c0,0.5,0,0.9-0.1,1.3s-0.2,0.7-0.3,1c-0.2,0.3-0.4,0.5-0.7,0.6C243.7,334.2,243.3,334.3,242.8,334.3z"/>
			</g>
			<g>
				<path class="st14" d="M277.9,332.4c-0.6,0-1-0.1-1.3-0.4c-0.3-0.2-0.6-0.6-0.8-1c-0.2-0.4-0.2-0.9-0.2-1.4v-3.1
					c0-0.6,0.1-1,0.2-1.5c0.1-0.4,0.4-0.8,0.7-1c0.3-0.2,0.8-0.4,1.4-0.4c0.5,0,1,0.1,1.3,0.3c0.3,0.2,0.5,0.4,0.7,0.7
					c0.1,0.3,0.2,0.7,0.2,1.2v0.1c0,0,0,0,0,0.1h-1.6c0-0.3,0-0.6-0.1-0.8c-0.1-0.2-0.2-0.2-0.4-0.2c-0.2,0-0.3,0-0.4,0.1
					s-0.1,0.3-0.2,0.5c0,0.2,0,0.6,0,1v0.8c0.1-0.1,0.2-0.3,0.4-0.3c0.2-0.1,0.4-0.1,0.6-0.1c0.4,0,0.8,0.1,1.1,0.3
					c0.3,0.2,0.5,0.5,0.6,0.9s0.2,0.8,0.2,1.3c0,0.6-0.1,1.1-0.2,1.6s-0.4,0.8-0.7,1.1C279,332.3,278.5,332.4,277.9,332.4z
					 M277.9,331.2c0.2,0,0.3-0.1,0.4-0.2s0.1-0.3,0.1-0.5s0-0.5,0-0.8s0-0.5,0-0.7s-0.1-0.4-0.1-0.5c-0.1-0.1-0.2-0.2-0.4-0.2
					c-0.1,0-0.2,0-0.2,0.1c-0.1,0-0.1,0.1-0.2,0.1c-0.1,0.1-0.1,0.1-0.1,0.2v1.4c0,0.2,0,0.4,0,0.5c0,0.2,0.1,0.3,0.2,0.4
					C277.7,331.1,277.8,331.2,277.9,331.2z"/>
			</g>
			<g>
				<path class="st14" d="M206.9,351.5l1.8-7.1h-2.3v-1.3h4v1.2l-1.8,7.3h-1.7V351.5z"/>
			</g>
			<g>
				<path class="st14" d="M242.9,353.8c-0.6,0-1-0.1-1.4-0.3c-0.3-0.2-0.6-0.5-0.7-0.9c-0.1-0.4-0.2-0.9-0.2-1.4
					c0-0.2,0-0.4,0.1-0.6c0-0.2,0.1-0.4,0.2-0.6c0.1-0.2,0.2-0.3,0.3-0.4s0.3-0.2,0.4-0.3c-0.2-0.2-0.4-0.4-0.6-0.7
					c-0.2-0.3-0.3-0.7-0.3-1.2s0.1-0.9,0.2-1.2c0.2-0.3,0.4-0.6,0.7-0.8c0.3-0.2,0.7-0.3,1.2-0.3s0.9,0.1,1.2,0.3
					c0.3,0.2,0.6,0.4,0.7,0.8c0.2,0.3,0.2,0.7,0.2,1.2s-0.1,0.9-0.3,1.2c-0.2,0.3-0.4,0.5-0.6,0.7c0.2,0.1,0.3,0.2,0.4,0.3
					c0.1,0.1,0.2,0.3,0.3,0.4c0.1,0.2,0.1,0.4,0.2,0.6c0,0.2,0.1,0.4,0.1,0.6c0,0.5-0.1,1-0.2,1.4c-0.1,0.4-0.4,0.7-0.7,0.9
					C243.9,353.7,243.5,353.8,242.9,353.8z M242.9,352.5c0.2,0,0.3-0.1,0.4-0.2c0.1-0.1,0.1-0.3,0.2-0.5c0-0.2,0-0.4,0-0.5
					c0-0.2,0-0.4,0-0.6s-0.1-0.4-0.2-0.5c-0.1-0.1-0.2-0.2-0.4-0.2s-0.3,0.1-0.4,0.2c-0.1,0.1-0.1,0.3-0.2,0.5c0,0.2,0,0.4,0,0.6
					s0,0.3,0,0.5s0.1,0.4,0.2,0.5C242.6,352.5,242.7,352.5,242.9,352.5z M242.9,348.6c0.1,0,0.2,0,0.3-0.1s0.1-0.2,0.2-0.4
					c0-0.2,0.1-0.4,0.1-0.7c0-0.3,0-0.5-0.1-0.7s-0.2-0.3-0.4-0.3s-0.3,0.1-0.4,0.3c-0.1,0.2-0.1,0.4-0.1,0.7c0,0.3,0,0.5,0.1,0.7
					c0,0.2,0.1,0.3,0.2,0.4C242.7,348.6,242.8,348.6,242.9,348.6z"/>
			</g>
			<g>
				<path class="st14" d="M277.8,352c-0.5,0-1-0.1-1.3-0.3c-0.3-0.2-0.5-0.4-0.7-0.7c-0.1-0.3-0.2-0.7-0.2-1.2c0,0,0,0,0-0.1
					c0,0,0,0,0-0.1h1.6c0,0.3,0,0.6,0.1,0.8c0.1,0.2,0.2,0.2,0.4,0.2c0.2,0,0.3,0,0.4-0.1s0.1-0.3,0.2-0.5c0-0.2,0-0.6,0-1v-0.8
					c-0.1,0.1-0.2,0.3-0.4,0.3c-0.2,0.1-0.4,0.1-0.6,0.1c-0.4,0-0.8-0.1-1.1-0.3c-0.3-0.2-0.5-0.5-0.6-0.9s-0.2-0.8-0.2-1.3
					c0-0.6,0.1-1.1,0.2-1.5s0.4-0.8,0.7-1c0.3-0.2,0.8-0.4,1.4-0.4s1,0.1,1.3,0.3c0.3,0.2,0.6,0.5,0.7,0.9c0.2,0.4,0.2,0.9,0.2,1.4
					v3.2c0,0.6-0.1,1-0.2,1.5c-0.1,0.4-0.4,0.8-0.7,1C278.9,351.9,278.4,352,277.8,352z M277.8,347.4c0.1,0,0.3,0,0.3-0.1
					c0.1-0.1,0.1-0.1,0.2-0.2v-1.4c0-0.2,0-0.4,0-0.5c0-0.2-0.1-0.3-0.2-0.4s-0.2-0.2-0.4-0.2c-0.2,0-0.3,0.1-0.3,0.2
					c-0.1,0.1-0.1,0.3-0.2,0.5c0,0.2,0,0.5,0,0.8s0,0.5,0,0.7s0.1,0.4,0.1,0.5C277.5,347.3,277.6,347.4,277.8,347.4z"/>
			</g>
			<g>
				<path class="st14" d="M206.8,371.5V363h3.7v1.3h-1.8v2.1h1.6v1.3h-1.6v3.8L206.8,371.5L206.8,371.5z"/>
			</g>
			<g>
				<path class="st14" d="M243.1,373.8c-0.5,0-0.9-0.1-1.3-0.3c-0.3-0.2-0.6-0.5-0.8-0.9s-0.3-0.8-0.3-1.3v-3.8
					c0-0.5,0.1-0.9,0.2-1.3c0.2-0.4,0.4-0.7,0.8-0.9c0.3-0.2,0.8-0.3,1.3-0.3s1,0.1,1.3,0.3c0.3,0.2,0.6,0.5,0.8,0.9
					s0.2,0.8,0.2,1.3v3.8c0,0.5-0.1,0.9-0.3,1.3s-0.4,0.7-0.8,0.9C244,373.7,243.6,373.8,243.1,373.8z M243.1,372.3
					c0.2,0,0.3-0.1,0.4-0.2c0.1-0.1,0.1-0.2,0.1-0.4c0-0.1,0-0.3,0-0.4v-3.8c0-0.1,0-0.3,0-0.4s-0.1-0.3-0.1-0.4
					c-0.1-0.1-0.2-0.2-0.4-0.2s-0.3,0.1-0.4,0.2c-0.1,0.1-0.1,0.2-0.1,0.4c0,0.1,0,0.3,0,0.4v3.8c0,0.1,0,0.2,0,0.4
					c0,0.1,0.1,0.3,0.1,0.4C242.8,372.2,242.9,372.3,243.1,372.3z"/>
			</g>
			<g>
				<path class="st14" d="M271.9,371.5v-1.6h1.6v1.6H271.9z"/>
				<path class="st14" d="M274.7,371.5l0.3-2.8h-0.6v-1.1h0.7l0.1-1.2h-0.8v-1.1h1l0.3-2.3h1.1l-0.3,2.3h0.8l0.3-2.3h1.1l-0.3,2.3
					h0.6v1.1h-0.7l-0.1,1.2h0.8v1.1h-1l-0.3,2.8h-1.1l0.3-2.8h-0.8l-0.3,2.8H274.7z M276.3,367.6h0.8l0.1-1.2h-0.8L276.3,367.6z"/>
				<path class="st14" d="M281.3,366.8l-1-0.6l0.8-1.1l-1.1-0.4l0.4-1l1,0.6l-0.1-1.2h1.3l-0.1,1.2l1-0.6l0.4,1l-1.1,0.4l0.8,1.1
					l-1,0.6l-0.5-1.1L281.3,366.8z"/>
			</g>
		</g>
	</g>
</g>
<g id="Hand_2">
	<g>
		<g>
			<path class="st9" d="M500.1,61.8L467.8,13c0,0,0,0-12.7,6s-29.8,9-53.3,16s-34.8,5.9-42.7,12.2c-7.9,6.3-29.4,44-31.5,47.5
				s1.9,11.5,1.9,11.5s31.8,21,32.3,21.5s8.4,5.9,12.1,6.3c3.7,0.4,11.9-1.1,11.9-1.1s3,1.9,5.2,2.6c2.1,0.7,7.6-0.6,7.6-0.6
				s9,3.8,13,0.3s10-21.9,10-21.9s18.8-4.3,33.4-10.9c14.5-6.6,21.7-15,31.2-22.2c5.1-3.9,10.3-6.7,14-8.4v-10H500.1z"/>
			<path class="st2" d="M390.2,126.6c3.5-5,8.7-13.3,10.6-19.5"/>
			<path class="st2" d="M386.9,131.2c0,0,0.5-0.7,1.4-1.9"/>
			<path class="st2" d="M401.7,132.5c0,0,2.3-4,7.9-13.9c5.7-9.9,4.6-12.9,3.6-13.7"/>
			<path class="st2" d="M361.5,88.8c1.4,1,2.9,1.9,4.5,2.6"/>
			<path class="st2" d="M348.5,72.9c0,0,3.1,7.4,9.8,13.4"/>
			<path class="st2" d="M359.2,61.3c0,0,7.2,16.4,14.2,19.4"/>
			<path class="st2" d="M415.6,105c0,0,6.2,4.3,6,8.5"/>
			<path class="st2" d="M337.5,95.1c2.3,0.5,5.3,1.4,8.1,3.2"/>
			<path class="st2" d="M333.6,94.7c0,0,0.9,0,2.3,0.2"/>
		</g>
		<g>
			<path class="st15" d="M374.2,162.8L280.6,190c-2.6,0.8-5.3-0.7-6.1-3.3L257.8,129c-0.8-2.6,0.7-5.3,3.3-6.1l93.6-27.2
				c2.6-0.8,5.3,0.7,6.1,3.3l16.7,57.6C378.3,159.3,376.8,162,374.2,162.8z"/>
			<g>
				<path class="st9" d="M285.3,156.5l-7.1,2.1c-2,0.6-4.2-0.6-4.8-2.6l-2.1-7.3c-0.6-2,0.6-4.2,2.6-4.8l7.1-2.1
					c2-0.6,4.2,0.6,4.8,2.6l2.1,7.3C288.5,153.8,287.4,155.9,285.3,156.5z"/>
				<line class="st2" x1="279.5" y1="158" x2="275.3" y2="143.7"/>
				<polyline class="st2" points="284,156.7 280.7,145.6 285.7,144.1 				"/>
				<line class="st2" x1="271.6" y1="148.8" x2="276.3" y2="147.4"/>
				<line class="st2" x1="272.5" y1="151.9" x2="277.2" y2="150.5"/>
				<line class="st2" x1="273.4" y1="155.1" x2="278.1" y2="153.8"/>
				<line class="st2" x1="282.1" y1="149" x2="286.8" y2="147.6"/>
				<line class="st2" x1="283.1" y1="152.3" x2="287.4" y2="151.1"/>
			</g>
			<g>
				<path class="st16" d="M278.8,171.8c-0.3-1.1-0.4-1.9-0.2-2.6c0.2-0.6,0.6-1.1,1.3-1.3c0.7-0.2,1.3-0.1,1.8,0.4
					c0.5,0.4,0.9,1.2,1.2,2.3c0.3,1.1,0.4,1.9,0.2,2.6c-0.2,0.6-0.6,1.1-1.3,1.3c-0.7,0.2-1.3,0.1-1.8-0.4S279.1,172.8,278.8,171.8z
					 M280.2,169c-0.3,0.1-0.4,0.3-0.5,0.7c0,0.4,0.1,1,0.3,1.7c0.1,0.2,0.1,0.5,0.2,0.6l0.8-2.7l0,0
					C280.8,169,280.5,168.9,280.2,169z M280.7,173c0.2,0.3,0.5,0.4,0.8,0.3c0.3-0.1,0.4-0.3,0.5-0.7c0-0.4-0.1-1-0.3-1.7
					c-0.1-0.3-0.2-0.5-0.3-0.8L280.7,173C280.7,173,280.7,173,280.7,173z"/>
				<path class="st16" d="M284.8,172.2l1.4-0.4l-1.2-4.1l-1.2,0.7l-0.3-1.1l1.2-0.7l1.2-0.3l1.5,5.2l1.4-0.4l0.3,1.1l-4,1.2
					L284.8,172.2z"/>
				<path class="st16" d="M289.1,168.8c-0.3-1.1-0.4-1.9-0.2-2.6c0.2-0.6,0.6-1.1,1.3-1.3c0.7-0.2,1.3-0.1,1.8,0.4
					c0.5,0.4,0.9,1.2,1.2,2.3c0.3,1.1,0.4,1.9,0.2,2.6c-0.2,0.6-0.6,1.1-1.3,1.3c-0.7,0.2-1.3,0.1-1.8-0.4
					C289.8,170.6,289.4,169.8,289.1,168.8z M290.5,166c-0.3,0.1-0.4,0.3-0.5,0.7c0,0.4,0.1,1,0.3,1.7c0.1,0.2,0.1,0.5,0.2,0.6
					l0.8-2.7l0,0C291.1,166,290.8,165.9,290.5,166z M291,170c0.2,0.3,0.5,0.4,0.8,0.3c0.3-0.1,0.4-0.3,0.5-0.7c0-0.4-0.1-1-0.3-1.7
					c-0.1-0.3-0.2-0.5-0.3-0.8L291,170C291,169.9,291,170,291,170z"/>
				<path class="st16" d="M295.2,169.2l1.4-0.4l-1.2-4.1l-1.2,0.7l-0.3-1.1l1.2-0.7l1.2-0.3l1.5,5.2l1.4-0.4l0.3,1.1l-4,1.2
					L295.2,169.2z"/>
				<path class="st16" d="M299.5,165.8c-0.3-1.1-0.4-1.9-0.2-2.6c0.2-0.6,0.6-1.1,1.3-1.3c0.7-0.2,1.3-0.1,1.8,0.4
					c0.5,0.4,0.9,1.2,1.2,2.3c0.3,1.1,0.4,1.9,0.2,2.6c-0.2,0.6-0.6,1.1-1.3,1.3c-0.7,0.2-1.3,0.1-1.8-0.4S299.8,166.8,299.5,165.8z
					 M300.9,163c-0.3,0.1-0.4,0.3-0.5,0.7c0,0.4,0.1,1,0.3,1.7c0.1,0.2,0.1,0.5,0.2,0.6l0.8-2.7l0,0
					C301.4,163,301.2,162.9,300.9,163z M301.4,167c0.2,0.3,0.5,0.4,0.8,0.3c0.3-0.1,0.4-0.3,0.5-0.7c0-0.4-0.1-1-0.3-1.7
					c-0.1-0.3-0.2-0.5-0.3-0.8L301.4,167C301.3,166.9,301.4,167,301.4,167z"/>
				<path class="st16" d="M305.5,166.2l1.4-0.4l-1.2-4.1l-1.2,0.7l-0.3-1.1l1.2-0.7l1.2-0.3l1.5,5.2l1.4-0.4l0.3,1.1l-4,1.2
					L305.5,166.2z"/>
				<path class="st16" d="M309.8,162.8c-0.3-1.1-0.4-1.9-0.2-2.6c0.2-0.6,0.6-1.1,1.3-1.3c0.7-0.2,1.3-0.1,1.8,0.4
					c0.5,0.4,0.9,1.2,1.2,2.3c0.3,1.1,0.4,1.9,0.2,2.6c-0.2,0.6-0.6,1.1-1.3,1.3c-0.7,0.2-1.3,0.1-1.8-0.4S310.1,163.8,309.8,162.8z
					 M311.2,160c-0.3,0.1-0.4,0.3-0.5,0.7c0,0.4,0.1,1,0.3,1.7c0.1,0.2,0.1,0.5,0.2,0.6l0.8-2.7l0,0
					C311.8,160,311.5,159.9,311.2,160z M311.7,164c0.2,0.3,0.5,0.4,0.8,0.3c0.3-0.1,0.4-0.3,0.5-0.7c0-0.4-0.1-1-0.3-1.7
					c-0.1-0.3-0.2-0.5-0.3-0.8L311.7,164C311.7,163.9,311.7,164,311.7,164z"/>
				<path class="st16" d="M315.8,163.2l1.4-0.4l-1.2-4.1l-1.2,0.7l-0.3-1.1l1.2-0.7l1.2-0.3l1.5,5.2l1.4-0.4l0.3,1.1l-4,1.2
					L315.8,163.2z"/>
				<path class="st16" d="M320.1,159.8c-0.3-1.1-0.4-1.9-0.2-2.6c0.2-0.6,0.6-1.1,1.3-1.3c0.7-0.2,1.3-0.1,1.8,0.4
					c0.5,0.4,0.9,1.2,1.2,2.3c0.3,1.1,0.4,1.9,0.2,2.6c-0.2,0.6-0.6,1.1-1.3,1.3c-0.7,0.2-1.3,0.1-1.8-0.4
					C320.9,161.6,320.4,160.8,320.1,159.8z M321.6,156.9c-0.3,0.1-0.4,0.3-0.5,0.7c0,0.4,0.1,1,0.3,1.7c0.1,0.2,0.1,0.5,0.2,0.6
					l0.8-2.7l0,0C322.1,157,321.8,156.9,321.6,156.9z M322.1,161c0.2,0.3,0.5,0.4,0.8,0.3c0.3-0.1,0.4-0.3,0.5-0.7
					c0-0.4-0.1-1-0.3-1.7c-0.1-0.3-0.2-0.5-0.3-0.8L322.1,161C322,160.9,322,161,322.1,161z"/>
				<path class="st16" d="M326.2,160.2l1.4-0.4l-1.2-4.1l-1.2,0.7l-0.3-1.1l1.2-0.7l1.2-0.3l1.5,5.2l1.4-0.4l0.3,1.1l-4,1.2
					L326.2,160.2z"/>
				<path class="st16" d="M330.5,156.7c-0.3-1.1-0.4-1.9-0.2-2.6c0.2-0.6,0.6-1.1,1.3-1.3c0.7-0.2,1.3-0.1,1.8,0.4
					c0.5,0.4,0.9,1.2,1.2,2.3c0.3,1.1,0.4,1.9,0.2,2.6c-0.2,0.6-0.6,1.1-1.3,1.3c-0.7,0.2-1.3,0.1-1.8-0.4
					C331.2,158.6,330.8,157.8,330.5,156.7z M331.9,153.9c-0.3,0.1-0.4,0.3-0.5,0.7c0,0.4,0.1,1,0.3,1.7c0.1,0.2,0.1,0.5,0.2,0.6
					l0.8-2.7l0,0C332.4,154,332.2,153.9,331.9,153.9z M332.4,158c0.2,0.3,0.5,0.4,0.8,0.3c0.3-0.1,0.4-0.3,0.5-0.7
					c0-0.4-0.1-1-0.3-1.7c-0.1-0.3-0.2-0.5-0.3-0.8L332.4,158C332.3,157.9,332.4,158,332.4,158z"/>
				<path class="st16" d="M336.5,157.2l1.4-0.4l-1.2-4.1l-1.2,0.7l-0.3-1.1l1.2-0.7l1.2-0.3l1.5,5.2l1.4-0.4l0.3,1.1l-4,1.2
					L336.5,157.2z"/>
				<path class="st16" d="M340.8,153.7c-0.3-1.1-0.4-1.9-0.2-2.6c0.2-0.6,0.6-1.1,1.3-1.3c0.7-0.2,1.3-0.1,1.8,0.4
					c0.5,0.4,0.9,1.2,1.2,2.3c0.3,1.1,0.4,1.9,0.2,2.6c-0.2,0.6-0.6,1.1-1.3,1.3c-0.7,0.2-1.3,0.1-1.8-0.4
					C341.5,155.6,341.1,154.8,340.8,153.7z M342.2,150.9c-0.3,0.1-0.4,0.3-0.5,0.7c0,0.4,0.1,1,0.3,1.7c0.1,0.2,0.1,0.5,0.2,0.6
					l0.8-2.7l0,0C342.8,151,342.5,150.9,342.2,150.9z M342.7,155c0.2,0.3,0.5,0.4,0.8,0.3c0.3-0.1,0.4-0.3,0.5-0.7
					c0-0.4-0.1-1-0.3-1.7c-0.1-0.3-0.2-0.5-0.3-0.8L342.7,155C342.7,154.9,342.7,155,342.7,155z"/>
				<path class="st16" d="M346.8,154.2l1.4-0.4l-1.2-4.1l-1.2,0.7l-0.3-1.1l1.2-0.7l1.2-0.3l1.5,5.2l1.4-0.4l0.3,1.1l-4,1.2
					L346.8,154.2z"/>
				<path class="st16" d="M351.1,150.7c-0.3-1.1-0.4-1.9-0.2-2.6c0.2-0.6,0.6-1.1,1.3-1.3c0.7-0.2,1.3-0.1,1.8,0.4
					c0.5,0.4,0.9,1.2,1.2,2.3c0.3,1.1,0.4,1.9,0.2,2.6c-0.2,0.6-0.6,1.1-1.3,1.3c-0.7,0.2-1.3,0.1-1.8-0.4
					C351.9,152.6,351.5,151.8,351.1,150.7z M352.6,147.9c-0.3,0.1-0.4,0.3-0.5,0.7c0,0.4,0.1,1,0.3,1.7c0.1,0.2,0.1,0.5,0.2,0.6
					l0.8-2.7l0,0C353.1,148,352.9,147.9,352.6,147.9z M353.1,152c0.2,0.3,0.5,0.4,0.8,0.3c0.3-0.1,0.4-0.3,0.5-0.7
					c0-0.4-0.1-1-0.3-1.7c-0.1-0.3-0.2-0.5-0.3-0.8L353.1,152C353,151.9,353.1,152,353.1,152z"/>
				<path class="st16" d="M357.2,151.2l1.4-0.4l-1.2-4.1l-1.2,0.7l-0.3-1.1l1.2-0.7l1.2-0.3l1.5,5.2l1.4-0.4l0.3,1.1l-4,1.2
					L357.2,151.2z"/>
				<path class="st16" d="M362.3,149.7l1.4-0.4l-1.2-4.1l-1.2,0.7l-0.3-1.1l1.2-0.7l1.2-0.3l1.5,5.2l1.4-0.4l0.3,1.1l-4,1.2
					L362.3,149.7z"/>
			</g>
			<path class="st2" d="M341.3,112.9l-6.4,1.9c-1.8,0.5-3.6-0.5-4.1-2.3l0,0c-0.5-1.8,0.5-3.6,2.3-4.1l6.4-1.9
				c1.8-0.5,3.6,0.5,4.1,2.3l0,0C344,110.5,343,112.3,341.3,112.9z"/>
			<path class="st2" d="M350.4,110.2l-6.4,1.9c-1.8,0.5-3.6-0.5-4.1-2.3l0,0c-0.5-1.8,0.5-3.6,2.3-4.1l6.4-1.9
				c1.8-0.5,3.6,0.5,4.1,2.3l0,0C353.2,107.8,352.2,109.7,350.4,110.2z"/>
		</g>
		<g>
			<path class="st9" d="M382,66.8c0,0-8.4,18.1-14.5,23.8c-6,5.7-30.7,22-36.9,28.7c-7.5,8.1-0.1,17,5.1,19.8s9.3,2.3,23.9-6.1
				c14.7-8.4,19.4-23.9,34.5-27.1s33.4-3.1,47.2-13.2c13.8-10.1,19.3-14.6,19.2-15.6"/>
			<path class="st2" d="M345.9,137c5.8-4.7,6.6-6.9,5.5-8c-1-1.1-10.1-13.3-10.1-13.3s-9.1,4-11.7,7c-2.6,2.9-1.3,8.9,4.1,13
				c5.3,4.1,9.4,3.3,10.5,2.7"/>
		</g>
		<polygon class="st5" points="485.4,-0.3 463.2,12.9 500.1,75.3 500.1,-0.3 		"/>
	</g>
</g>
<g id="Hand_1">
	<g>
		<path class="st9" d="M182.5,329.1c-6.1-0.5-14.6,6.9-14.6,6.9l-69.6,1.1c0,0,1.1-8.5-2.1-10.6s-5.3,1.9-9.3,4.8
			s-19.6,13.2-19.6,13.2s-24.1,15.6-29.1,19.3c-5,3.7-17.7,25.9-17.7,25.9S12,405.3,9.7,413.5S5,429.4,5,429.4l-4.6,5v65H29l26.8-20
			c0,0,7.1-2.4,13.2-5s19.6-9.8,33.3-17.5c13.8-7.7,27.5-17.5,27.5-17.5s15.3-16.4,22-23c6.6-6.6,13-20.1,15.1-27.5s5.3-28,5.3-28
			s1.3-2.4,4.8-7.4c3.4-5,8.2-9.3,10.6-15.3C189.9,332,188.6,329.7,182.5,329.1z"/>
		<path class="st5" d="M171.4,333.4c-2,1.4-3.4,2.6-3.4,2.6l-69.6,1.1c0,0,0.1-0.7,0.1-1.7c-2.1,6.3-7.2,19.7-12.1,21.5
			c-6.4,2.4-10.6,9-10.6,9l-7.8,6.3c0,0,4.7,0.9,7.4,1.1c2.7,0.2,6.6,2.4,13.4,3.7c6.8,1.3,33.2,13,33.2,13s7.3,5.5,9,13
			c1.6,7.5-1.1,13.6-1.1,13.6l32.4-15.8c2.1-4.4,3.8-8.6,4.7-11.8c0.5-1.8,1.1-4.5,1.7-7.4l-0.5-4.4c0,0-3.7-17-3.3-24.7
			C165,346.8,169.1,337.9,171.4,333.4z"/>
		<path class="st9" d="M158.1,409.9c0,0,12-18.9,14-24.4s0.7-11.1,0-15.5s0.9-10.7-1.3-12.7s-8.6-2-11.1,2.9s-1.6,9.6-0.9,14.2
			c0.7,4.6,1.1,6.9,1.1,6.9s-4.9,5.3-4.9,5.8"/>
		<path class="st9" d="M130.9,437.3c0,0,20.8-17.5,23.5-22.2s7.5-13.7,7.6-19.1s-3.5-12-4.2-15.1s-5.6-3.3-8.7,0.4
			c-3.1,3.6-1.8,10.7-1.6,12.6c0.2,1.8,0.4,3.6,0.4,3.6s-4,3.8-5.1,6.2c-1.1,2.4-2.2,4.7-2.2,4.7s-5.8,3.5-8.2,5.1s-4.7,5.5-4.7,5.5
			"/>
		<path class="st2" d="M149.3,399.1c0,0,2,4.7,6.9,5.5"/>
		<path class="st2" d="M141.5,409.7c0,0-2,6.4,6.4,8.6"/>
		<path class="st2" d="M161.2,382.2c0,0-0.4,5.6,7.6,4.6"/>
		<path class="st2" d="M124.9,396.2c0,0,3.1,4.6,3.5,10.9"/>
		<path class="st2" d="M82.7,358.7c0,0-6.9,6.7-8.2,8.2c-1.3,1.5-6.6,5.3-6.6,5.3s-1.6,4.6-3.3,7.3"/>
		<path class="st2" d="M78.5,384.6c0,0-1.1,15.5-10.4,26.4"/>
		<path class="st2" d="M99.8,390.2c0,0-6.5,10.1,0.5,24.7c7.1,14.7,9.8,23.9,9.8,23.9"/>
		<g>
			<path class="st9" d="M138.2,257.1L77.4,368.7c-3,5.5,0.1,12.3,6.2,13.7l48.9,11.2c4.2,1,8.6-1.1,10.5-5l58.9-118
				c1.8-3.6-0.4-7.9-4.4-8.5l-53.1-8C141.8,253.7,139.4,254.9,138.2,257.1z"/>
			<polygon class="st15" points="136.6,265.2 82.6,364.6 145.7,379 196.4,276.1 			"/>
			<path class="st10" d="M203.4,268.4L203.4,268.4L203.4,268.4c0-0.1-0.1-0.1-0.1-0.2l-1-1.7c0.3,1.3,0.2,2.7-0.5,4.1l-58.9,118
				c-1.9,3.9-6.3,6-10.5,5l-48.9-11.2c-3.2-0.7-5.5-2.9-6.6-5.6h-0.1c0,0,0.4,4.4,5,7.7c0,0,0.6,0.5,1.8,0.6
				c0.5,0.2,0.9,0.3,1.4,0.5l48.9,11.2c4.2,1,8.6-1.1,10.5-5l58.9-118C204.3,272,204.2,270,203.4,268.4z"/>
			<g id="Z4uzrq.tif">
				<g>
					<path class="st3" d="M174.9,304c-0.1,0.1-0.2,0.3-0.3,0.4c-1.5,2.1-4.3,2.4-5.2,0.5c-0.8-1.8-1.8-3.4-3-4.9
						c-2.2-2.7-5.1-4.8-8.5-6.1c-2.4-0.9-4.9-1.5-7.7-1.7c-6.8-0.4-13.6,1.4-20.4,5.4c-0.6,0.4-1.3,0.6-1.9,0.7
						c-1.3,0.1-2.3-0.8-2.3-2c-0.1-1.2,0.7-2.6,2-3.4c1.7-1,3.5-2,5.2-2.8c4.5-2.1,9-3.3,13.5-3.8c4.1-0.4,8-0.2,11.6,0.8
						c5.3,1.3,9.6,3.9,13,7.8c1.7,1.9,3.1,4.1,4.1,6.5c0.2,0.5,0.3,1.1,0.1,1.8v0.1C175.1,303.6,175,303.8,174.9,304z"/>
					<path class="st3" d="M138.8,325.2c-0.3-0.2-0.6-0.3-0.9-0.5c-1-0.9-1.1-2.5-0.2-4c0.9-1.5,2.6-2.4,4.1-2.2
						c1.8,0.1,2.7,1.7,2.2,3.5c-0.6,1.9-2.5,3.4-4.4,3.3h-0.1C139.3,325.3,139,325.2,138.8,325.2z"/>
					<path class="st3" d="M151.3,297.4c6.5,1.3,11,4.7,13.6,10.4c0.4,1,0.1,2.2-0.8,3.2c-0.9,1-2.2,1.5-3.2,1.2
						c-0.7-0.2-1.1-0.5-1.4-1.1c-0.6-1.5-1.5-2.8-2.6-3.9c-1.7-1.8-3.7-3-6.2-3.7c-4.2-1.2-8.7-0.9-13.5,0.9c-1.4,0.5-2.7,1.2-4.1,2
						c-0.7,0.4-1.5,0.6-2.2,0.5c-1.1-0.2-1.8-1-1.7-2.1c0-1.1,0.8-2.3,1.9-2.9c1.6-1,3.3-1.8,5-2.5c3.8-1.5,7.6-2.3,11.3-2.2
						C148.8,297.1,150.1,297.2,151.3,297.4z"/>
					<path class="st3" d="M155.2,315.8c-0.6,1.2-1.5,2-2.7,2.3s-2.1-0.1-2.6-1c-0.5-1-1.1-1.9-2-2.7c-2.8-2.2-7.2-2.2-11.1,0.2
						c-1.4,0.8-2.8,0.7-3.5-0.2c-1-1.2-0.3-3.3,1.4-4.3c2.9-1.7,5.9-2.8,8.9-2.9c5.4-0.2,9.3,1.8,11.4,6.1c0.3,0.5,0.5,1.1,0.3,1.8
						C155.3,315.3,155.2,315.6,155.2,315.8z"/>
				</g>
			</g>
		</g>
	</g>
</g>
</svg>
